<svg height="512pt" viewBox="0 -31 512.00175 512" width="512pt" xmlns="http://www.w3.org/2000/svg"><path d="m344.1875 376.863281 6.574219-60.460937-23.972657-45.183594 28.003907 6.789062 4.03125-38.398437-10.820313-32.03125 15.0625-6.152344 4.03125-38.398437 2.121094-19.089844 61.898438 40.683594c27.433593.609375 55.507812-8.59375 76.492187-29.578125 5.859375-5.859375 5.855469-15.355469 0-21.214844l-10.609375-10.605469-95.960938-95.960937-1.484374-1.488281c-34.367188-34.363282-89.949219-34.363282-124.3125 0-9.546876 9.546874-16.757813 21.425781-21.214844 34.367187l-32.667969 98.429687-8.699219-22.269531c-13.363281-34.582031-44.0625-61.039062-80.550781-68.675781-36.277344-7.847656-73.824219 3.394531-100.128906 29.699219-42.640625 42.640625-42.640625 112.222656 0 154.863281l173.46875 173.46875c31.820312 31.820312 83.582031 31.816406 115.402343 0 13.148438-13.15625 21.421876-30.339844 23.335938-48.792969zm0 0" fill="#ffda2d"/><g fill="#fdbf00"><path d="m320.847656 425.652344c13.152344-13.152344 21.425782-30.335938 23.335938-48.789063l6.578125-60.460937-23.972657-45.183594 28.003907 6.789062 4.03125-38.398437-10.820313-32.03125 15.0625-6.152344 4.03125-38.398437 2.121094-19.089844 61.898438 40.683594c27.433593.609375 55.507812-8.59375 76.488281-29.578125 5.859375-5.859375 5.859375-15.355469 0-21.214844l-106.566407-106.566406-296.996093 296.992187 101.40625 101.402344c31.816406 31.820312 83.582031 31.816406 115.398437-.003906zm0 0"/><path d="m135.863281 143.933594c-5.859375-5.855469-15.355469-5.855469-21.214843 0-5.855469 5.859375-5.855469 15.355468 0 21.214844 5.859374 5.859374 15.355468 5.859374 21.214843 0 5.859375-5.859376 5.859375-15.355469 0-21.214844zm0 0"/><path d="m114.648438 207.574219c-5.855469-5.855469-15.355469-5.855469-21.210938 0-5.859375 5.859375-5.859375 15.359375 0 21.214843 5.855469 5.859376 15.355469 5.859376 21.210938 0 5.859374-5.855468 5.859374-15.355468 0-21.214843zm0 0"/><path d="m178.289062 228.789062c-5.855468-5.855468-15.355468-5.855468-21.214843 0-5.855469 5.859376-5.855469 15.355469 0 21.214844 5.859375 5.859375 15.359375 5.859375 21.214843 0 5.859376-5.859375 5.859376-15.355468 0-21.214844zm0 0"/></g><path d="m305.574219 165.148438c-5.863281 5.863281-5.863281 15.351562 0 21.214843l53.339843 53.339844 4.113282-38.316406-36.238282-36.238281c-5.863281-5.863282-15.351562-5.863282-21.214843 0zm0 0" fill="#ff9100"/><path d="m284.363281 228.789062c-5.863281 5.863282-5.863281 15.351563 0 21.214844l66.328125 66.332032 4.113282-38.316407-49.230469-49.230469c-5.863281-5.859374-15.347657-5.859374-21.210938 0zm0 0" fill="#ff9100"/><path d="m326.789062 101.507812c-5.859374 5.859376-5.859374 15.355469 0 21.214844l40.304688 40.304688c12.023438 6.019531 29.695312 20.828125 64.019531 21.59375l-83.109375-83.113282c-5.859375-5.859374-15.355468-5.859374-21.214844 0zm0 0" fill="#ff9100"/></svg>